<?xml version="1.0" encoding="UTF-8" standalone="no"?>
<!-- Created with Inkscape (http://www.inkscape.org/) -->

<svg
   version="1.1"
   id="svg801"
   xml:space="preserve"
   width="682.66669"
   height="682.66669"
   viewBox="0 0 682.66669 682.66669"
   xmlns="http://www.w3.org/2000/svg"
   xmlns:svg="http://www.w3.org/2000/svg" fill="#1641A6"><defs
     id="defs805"><clipPath
       clipPathUnits="userSpaceOnUse"
       id="clipPath815"><path
         d="M 0,512 H 512 V 0 H 0 Z"
         id="path813" /></clipPath></defs><g
     id="g807"
     transform="matrix(1.3333333,0,0,-1.3333333,0,682.66667)"><g
       id="g809"><g
         id="g811"
         clip-path="url(#clipPath815)"><g
           id="g817"
           transform="translate(424.6758,110.4556)"><path
             d="m 0,0 31.891,-56.779 c 4.535,-8.051 23.016,-12.87 23.016,8.078 V 0"
             style="fill:none;stroke:#1641A6;stroke-width:15;stroke-linecap:round;stroke-linejoin:round;stroke-miterlimit:10;stroke-dasharray:none;stroke-opacity:1"
             id="path819" /></g><g
           id="g821"
           transform="translate(147.1919,47.2412)"><path
             d="m 0,0 c 34.838,0 63.213,28.404 63.213,63.214 0,34.839 -28.375,63.244 -63.213,63.244 -34.81,0 -63.213,-28.405 -63.213,-63.244 C -63.213,28.404 -34.81,0 0,0 Z"
             style="fill:none;stroke:#1641A6;stroke-width:15;stroke-linecap:round;stroke-linejoin:round;stroke-miterlimit:10;stroke-dasharray:none;stroke-opacity:1"
             id="path823" /></g><g
           id="g825"
           transform="translate(147.1919,86.1904)"><path
             d="M 0,0 C 13.379,0 24.293,10.914 24.293,24.265 24.293,37.645 13.379,48.559 0,48.559 -13.352,48.559 -24.265,37.645 -24.265,24.265 -24.265,10.914 -13.352,0 0,0 Z"
             style="fill:none;stroke:#1641A6;stroke-width:15;stroke-linecap:round;stroke-linejoin:round;stroke-miterlimit:10;stroke-dasharray:none;stroke-opacity:1"
             id="path827" /></g><g
           id="g829"
           transform="translate(245.1855,110.4556)"><path
             d="m 0,0 c 0,54.115 -43.88,97.997 -97.994,97.997 -54.113,0 -97.965,-43.882 -97.965,-97.997 h 34.752 c 0,34.924 28.319,63.243 63.213,63.243 34.923,0 63.213,-28.319 63.213,-63.243 z"
             style="fill:none;stroke:#1641A6;stroke-width:15;stroke-linecap:round;stroke-linejoin:round;stroke-miterlimit:10;stroke-dasharray:none;stroke-opacity:1"
             id="path831" /></g><g
           id="g833"
           transform="translate(17.2798,348.6016)"><path
             d="m 0,0 h 68.145 c 5.641,0 10.261,-4.592 10.261,-10.233 v -65.794 c 0,-5.641 -4.62,-10.262 -10.261,-10.262 H 0"
             style="fill:none;stroke:#1641A6;stroke-width:15;stroke-linecap:round;stroke-linejoin:round;stroke-miterlimit:10;stroke-dasharray:none;stroke-opacity:1"
             id="path835" /></g><g
           id="g837"
           transform="translate(220.1841,348.6016)"><path
             d="m 0,0 h -74.636 c -4.111,0 -7.484,-3.374 -7.484,-7.484 v -71.322 c 0,-4.11 3.373,-7.483 7.484,-7.483 H 0 c 4.139,0 7.483,3.373 7.483,7.483 V -7.484 C 7.483,-3.374 4.139,0 0,0 Z"
             style="fill:none;stroke:#1641A6;stroke-width:15;stroke-linecap:round;stroke-linejoin:round;stroke-miterlimit:10;stroke-dasharray:none;stroke-opacity:1"
             id="path839" /></g><g
           id="g841"
           transform="translate(504.5,262.3125)"><path
             d="m 0,0 h -51.732 c -4.337,0 -7.91,3.572 -7.91,7.909 V 78.38 c 0,4.366 3.573,7.909 7.91,7.909 h 34.554"
             style="fill:none;stroke:#1641A6;stroke-width:15;stroke-linecap:round;stroke-linejoin:round;stroke-miterlimit:10;stroke-dasharray:none;stroke-opacity:1"
             id="path843" /></g><g
           id="g845"
           transform="translate(289.6045,414.1689)"><path
             d="m 0,0 c 0,19.645 -24.123,51.025 -75.543,51.025 h -133.569 c -16.611,0 -30.189,-15.308 -30.189,-34.017 V 0"
             style="fill:none;stroke:#1641A6;stroke-width:15;stroke-linecap:round;stroke-linejoin:round;stroke-miterlimit:10;stroke-dasharray:none;stroke-opacity:1"
             id="path847" /></g><g
           id="g849"
           transform="translate(17.2798,233.9932)"><path
             d="m 0,0 h 22.138 c 5.386,0 9.808,-4.422 9.808,-9.808 v -24.463 c 0,-5.387 -4.422,-9.809 -9.808,-9.809 H 0 c -5.386,0 -9.78,4.422 -9.78,9.809 V -9.808 C -9.78,-4.422 -5.386,0 0,0 Z"
             style="fill:none;stroke:#1641A6;stroke-width:15;stroke-linecap:round;stroke-linejoin:round;stroke-miterlimit:10;stroke-dasharray:none;stroke-opacity:1"
             id="path851" /></g><g
           id="g853"
           transform="translate(340.373,369.3232)"><path
             d="M 0,0 H 19.871"
             style="fill:none;stroke:#1641A6;stroke-width:15;stroke-linecap:round;stroke-linejoin:round;stroke-miterlimit:10;stroke-dasharray:none;stroke-opacity:1"
             id="path855" /></g><g
           id="g857"
           transform="translate(405.2021,327.7095)"><path
             d="m 0,0 h -119.254 c -5.527,0 -10.035,-4.536 -10.035,-10.035 v -14.967 c 0,-5.131 3.912,-9.383 8.901,-9.95 0.368,-0.057 0.738,-0.085 1.134,-0.085 H -1.417 0 c 5.527,0 10.034,4.536 10.034,10.035 v 14.967 C 10.034,-4.536 5.527,0 0,0 Z"
             style="fill:none;stroke:#1641A6;stroke-width:15;stroke-linecap:round;stroke-linejoin:round;stroke-miterlimit:10;stroke-dasharray:none;stroke-opacity:1"
             id="path859" /></g><g
           id="g861"
           transform="translate(408.1221,186.4834)"><path
             d="M 0,0 V -76.028 H -122.174 V 106.189 H 0 V 34.612"
             style="fill:none;stroke:#1641A6;stroke-width:15;stroke-linecap:round;stroke-linejoin:round;stroke-miterlimit:10;stroke-dasharray:none;stroke-opacity:1"
             id="path863" /></g><g
           id="g865"
           transform="translate(312.4521,204.2002)"><path
             d="M 0,0 V 8.306"
             style="fill:none;stroke:#1641A6;stroke-width:15;stroke-linecap:round;stroke-linejoin:round;stroke-miterlimit:10;stroke-dasharray:none;stroke-opacity:1"
             id="path867" /></g><g
           id="g869"
           transform="translate(17.2798,189.9131)"><path
             d="m 0,0 v -54.54 c 0,-13.692 11.197,-24.918 24.917,-24.918 h 41.782 m 64.347,303.714 H 33.023 24.917 C 11.197,224.256 0,213.03 0,199.338 V 44.08 M 193.125,-79.458 h 269.178 c 13.692,0 24.917,11.226 24.917,24.918 V 92.129 c 0,60.465 -42.917,132.127 -130.11,132.127 H 272.325 165.686"
             style="fill:none;stroke:#1641A6;stroke-width:15;stroke-linecap:round;stroke-linejoin:round;stroke-miterlimit:10;stroke-dasharray:none;stroke-opacity:1"
             id="path871" /></g></g></g></g></svg>
