<svg id="Layer_1" enable-background="new 0 0 512 512" height="512" viewBox="0 0 512 512" width="512" xmlns="http://www.w3.org/2000/svg" fill="#1641A6"><g><path d="m78 332c-19.8505859 0-36 16.1494141-36 36s16.1494141 36 36 36 36-16.1494141 36-36-16.1494141-36-36-36zm0 56c-11.027832 0-20-8.972168-20-20s8.972168-20 20-20 20 8.972168 20 20-8.972168 20-20 20z"/><path d="m506.9003906 230.4599609c-3.0380859-3.4697265-7.4257812-5.4599609-12.0380859-5.4599609h-34.0107422c-7.7446289 0-14.2461548 5.4239502-15.6948242 12.972168l-8.7304688-34.6210938c-7.1791992-28.4682617-32.6982422-48.3510742-62.0576172-48.3510742h-226.6654663c-.8759155-5.2111816.2489014-10.5393066 3.258728-15.0336914 3.668457-5.4785156 9.5478516-8.8447266 16.1293945-9.2353516l132.1333008-7.840332c20.0610352-1.3525391 35.7753907-18.1616211 35.7753907-38.2685547 0-2.244751-.204895-4.4436035-.5779419-6.5869141 4.5310059-6.9815674 9.3847656-11.1210938 14.7327881-12.5561523.6732788.5534668 1.3998413 1.0471191 2.1776733 1.4619141h-.0004883c7.6567383 4.0844727 15.9277344 6.0302734 24.1020508 6.0302734 17.3061523 0 34.1757812-8.7241211 43.8427734-24.3476562l2.7246094-4.4042969c1.9501953-3.1513672 2.5024414-7.0073242 1.5151367-10.5795898-.987793-3.5722656-3.4418945-6.5976562-6.7353516-8.3007812l-.4301758-.2226562c-23.7231445-12.2705078-53.3120117-4.0893555-67.3637695 18.6220703l-2.7241211 4.4018555c-.355896.5751953-.6489258 1.1801758-.9108276 1.796875-6.6975098 1.7072754-12.7892456 5.5355225-18.223999 11.4414062-6.564209-8.5942383-16.6807861-14.3659668-28.2313843-15.0454102l-49.9048462-2.9356689c-2.2908935-19.8951417-19.2280883-35.397339-39.7265014-35.397339h-16.0695801c-.493103-3.9454346-3.8518677-7-7.9309082-7-4.418457 0-8 3.581543-8 8v7 8h-24c-4.418457 0-8 3.581543-8 8s3.581543 8 8 8h24v16h-24c-4.418457 0-8 3.581543-8 8s3.581543 8 8 8h24v8 7c0 4.418457 3.581543 8 8 8 4.0790405 0 7.4378052-3.0545654 7.9309082-7h16.0695801c18.1154785 0 33.4478149-12.1091309 38.3511353-28.6556396l50.3407593 2.9613037c11.7993163.6938476 21.0424804 10.496582 21.0424804 22.3164062 0 11.7192383-9.1591797 21.5166016-20.7871094 22.3007812l-132.0688477 7.8364258c-11.6201172.6894531-21.9995117 6.6318359-28.4765625 16.3041992-4.8686523 7.2705078-6.9475708 15.7768555-6.0720215 24.2281494-26.7669678 2.512207-49.3395996 21.5622559-56.0217285 48.0594482l-8.7304077 34.6209717c-1.4486083-7.5479735-7.9501953-12.9720458-15.6948852-12.9720458h-34.0107422c-4.6123047 0-9 1.9902344-12.0380859 5.4599609-3.0380859 3.4702148-4.4311523 8.0825195-3.8217773 12.6542969l3.8666992 29c1.0551757 7.9160156 7.8730468 13.8857422 15.8593749 13.8857422h13.3540039c-14.6141967 11.2342529-23.3579101 28.651123-23.3579101 47.5214844v141.4785156c0 19.8505859 16.1494141 36 36 36h30c19.8505859 0 36-16.1494141 36-36v-28h17 252 17v28c0 19.8505859 16.1494141 36 36 36h30c19.8505859 0 36-16.1494141 36-36v-141.4785156c0-18.8703614-8.7437134-36.2872315-23.3579102-47.5214844h13.3540039c7.9863281 0 14.8041992-5.9697266 15.859375-13.8857422l3.8666992-29.0004883c.6093751-4.571289-.7836913-9.1835937-3.8217773-12.6538086zm-144.3071289-178.3027343c9.2592773-14.9643555 28.3105469-20.7714844 44.2529297-13.8525391l-1.1757812 1.8999023c-9.3037109 15.0366211-28.2866211 20.7973633-44.2539062 13.8535156zm-153.3276367 19.8427734h-16.0004883v-8-32-8h16.0004883c13.2333984 0 23.9995117 10.7666016 23.9995117 24s-10.7661133 24-23.9995117 24zm-118.1772461 135.2631836c5.3842773-21.3510742 24.5234375-36.2631836 46.5429688-36.2631836h236.7373047c22.0195312 0 41.1586914 14.9121094 46.5429688 36.2631836l16.324768 64.7368164h-362.4727784zm331.4765625 80.7368164-55.7163086 45.5239258c-7.4790039 6.1108398-16.9169922 9.4760742-26.5742187 9.4760742h-168.5488282c-9.6572266 0-19.0952148-3.3652344-26.5742188-9.4755859l-55.7163085-45.5244141zm-405.4272461-47h34.0107422l4.5107422 29h-34.6552735zm467.8623047 92.5214844v141.4785156c0 11.027832-8.972168 20-20 20h-30c-11.027832 0-20-8.972168-20-20v-28h38c4.418457 0 8-3.581543 8-8s-3.581543-8-8-8h-46-25-252-25-46c-4.418457 0-8 3.581543-8 8s3.581543 8 8 8h38v28c0 11.027832-8.972168 20-20 20h-30c-11.027832 0-20-8.972168-20-20v-141.4785156c0-16.4516602 9.0610352-31.3994141 23.6474609-39.0097656l13.1030884-6.8363037 71.277771 58.2391357c10.328125 8.4384765 23.3608399 13.0854492 36.6972656 13.0854492h168.5488281c13.3364258 0 26.3691406-4.6469727 36.6977539-13.0859375l71.2772827-58.2386475 13.1030884 6.8363037c14.5864258 7.6103516 23.647461 22.5581055 23.647461 39.0097657zm5.9960938-63.5214844h-34.6552734l4.5107422-29h34.0112305z"/><path d="m434 332c-19.8505859 0-36 16.1494141-36 36s16.1494141 36 36 36 36-16.1494141 36-36-16.1494141-36-36-36zm0 56c-11.027832 0-20-8.972168-20-20s8.972168-20 20-20 20 8.972168 20 20-8.972168 20-20 20z"/><path d="m325.5 389h-139c-4.418457 0-8 3.581543-8 8s3.581543 8 8 8h139c4.418457 0 8-3.581543 8-8s-3.581543-8-8-8z"/></g></svg>