<?xml version="1.0" encoding="UTF-8" standalone="no"?>
<!-- Created with Inkscape (http://www.inkscape.org/) -->

<svg
   version="1.1"
   id="svg3771"
   xml:space="preserve"
   width="682.66669"
   height="682.66669"
   viewBox="0 0 682.66669 682.66669"
   xmlns="http://www.w3.org/2000/svg"
   xmlns:svg="http://www.w3.org/2000/svg" fill="#1641A6"><defs
     id="defs3775"><clipPath
       clipPathUnits="userSpaceOnUse"
       id="clipPath3785"><path
         d="M 0,512 H 512 V 0 H 0 Z"
         id="path3783" /></clipPath></defs><g
     id="g3777"
     transform="matrix(1.3333333,0,0,-1.3333333,0,682.66667)"><g
       id="g3779"><g
         id="g3781"
         clip-path="url(#clipPath3785)"><g
           id="g3787"
           transform="translate(431.8935,138.9941)"><path
             d="m 0,0 c 0,-26.916 -21.82,-48.735 -48.736,-48.735 -26.915,0 -48.735,21.819 -48.735,48.735 0,26.916 21.82,48.735 48.735,48.735 C -21.82,48.735 0,26.916 0,0 Z"
             style="fill:none;stroke:#1641A6;stroke-width:15;stroke-linecap:round;stroke-linejoin:round;stroke-miterlimit:10;stroke-dasharray:none;stroke-opacity:1"
             id="path3789" /></g><g
           id="g3791"
           transform="translate(407.5258,138.9941)"><path
             d="m 0,0 c 0,-13.458 -10.91,-24.368 -24.368,-24.368 -13.458,0 -24.368,10.91 -24.368,24.368 0,13.458 10.91,24.367 24.368,24.367 C -10.91,24.367 0,13.458 0,0 Z"
             style="fill:none;stroke:#1641A6;stroke-width:15;stroke-linecap:round;stroke-linejoin:round;stroke-miterlimit:10;stroke-dasharray:none;stroke-opacity:1"
             id="path3793" /></g><g
           id="g3795"
           transform="translate(149.8769,138.9941)"><path
             d="m 0,0 c 0,-26.916 -21.82,-48.735 -48.736,-48.735 -26.915,0 -48.735,21.819 -48.735,48.735 0,26.916 21.82,48.735 48.735,48.735 C -21.82,48.735 0,26.916 0,0 Z"
             style="fill:none;stroke:#1641A6;stroke-width:15;stroke-linecap:round;stroke-linejoin:round;stroke-miterlimit:10;stroke-dasharray:none;stroke-opacity:1"
             id="path3797" /></g><g
           id="g3799"
           transform="translate(125.5093,138.9941)"><path
             d="m 0,0 c 0,-13.458 -10.91,-24.368 -24.368,-24.368 -13.458,0 -24.368,10.91 -24.368,24.368 0,13.458 10.91,24.367 24.368,24.367 C -10.91,24.367 0,13.458 0,0 Z"
             style="fill:none;stroke:#1641A6;stroke-width:15;stroke-linecap:round;stroke-linejoin:round;stroke-miterlimit:10;stroke-dasharray:none;stroke-opacity:1"
             id="path3801" /></g><g
           id="g3803"
           transform="translate(462.5351,309.623)"><path
             d="M 0,0 H 30.498 L 41.965,-35.815"
             style="fill:none;stroke:#1641A6;stroke-width:15;stroke-linecap:round;stroke-linejoin:round;stroke-miterlimit:10;stroke-dasharray:none;stroke-opacity:1"
             id="path3805" /></g><g
           id="g3807"
           transform="translate(478.7007,254.5137)"><path
             d="m 0,0 -23.639,80.587 c -4.759,12.672 -16.877,21.065 -30.414,21.065 h -102.626 c -3.039,0 -5.503,-2.464 -5.503,-5.503 V -115.52 h 17.904 c 0,26.916 21.82,48.736 48.735,48.736 26.916,0 48.736,-21.82 48.736,-48.736 h 44.472 c 6.471,0 11.765,5.294 11.765,11.766 v 51.825 C 9.43,-34.193 6.236,-16.603 0,0 Z"
             style="fill:none;stroke:#1641A6;stroke-width:15;stroke-linecap:round;stroke-linejoin:round;stroke-miterlimit:10;stroke-dasharray:none;stroke-opacity:1"
             id="path3809" /></g><g
           id="g3811"
           transform="translate(455.062,335.1006)"><path
             d="m 0,0 c -4.76,12.672 -16.877,21.065 -30.414,21.065 h -102.627 c -3.038,0 -5.502,-2.463 -5.502,-5.502 V -8.236 H 2.416 Z"
             style="fill:none;stroke:#1641A6;stroke-width:15;stroke-linecap:round;stroke-linejoin:round;stroke-miterlimit:10;stroke-dasharray:none;stroke-opacity:1"
             id="path3813" /></g><g
           id="g3815"
           transform="translate(101.1435,187.7295)"><path
             d="M 0,0 C 26.915,-0.001 48.733,-21.82 48.733,-48.735 H 215.375 V 0 Z"
             style="fill:none;stroke:#1641A6;stroke-width:15;stroke-linecap:round;stroke-linejoin:round;stroke-miterlimit:10;stroke-dasharray:none;stroke-opacity:1"
             id="path3817" /></g><g
           id="g3819"
           transform="translate(19.562,187.7295)"><path
             d="M 0,0 C -6.662,0 -12.062,-5.4 -12.062,-12.063 V -36.97 c 0,-6.471 5.294,-11.765 11.766,-11.765 h 33.14 c 0,26.915 21.818,48.734 48.733,48.735 z"
             style="fill:none;stroke:#1641A6;stroke-width:15;stroke-linecap:round;stroke-linejoin:round;stroke-miterlimit:10;stroke-dasharray:none;stroke-opacity:1"
             id="path3821" /></g><g
           id="g3823"
           transform="translate(365.3784,223.8467)"><path
             d="M 0,0 H 7"
             style="fill:none;stroke:#1641A6;stroke-width:15;stroke-linecap:round;stroke-linejoin:round;stroke-miterlimit:10;stroke-dasharray:none;stroke-opacity:1"
             id="path3825" /></g><g
           id="g3827"
           transform="translate(468.9018,183.7295)"><path
             d="M 0,0 C -4.872,0 -8.857,-3.985 -8.857,-8.856 V -44.735 H 7.464 c 6.471,0 11.765,5.294 11.765,11.765 l 0,32.97 z"
             style="fill:none;stroke:#1641A6;stroke-width:15;stroke-linecap:round;stroke-linejoin:round;stroke-miterlimit:10;stroke-dasharray:none;stroke-opacity:1"
             id="path3829" /></g><g
           id="g3831"
           transform="translate(300.2573,421.7412)"><path
             d="m 0,0 h -268.713 c -8.981,0 -16.262,-7.28 -16.262,-16.262 v -217.75 H 16.262 v 217.75 C 16.262,-7.28 8.981,0 0,0 Z"
             style="fill:none;stroke:#1641A6;stroke-width:15;stroke-linecap:round;stroke-linejoin:round;stroke-miterlimit:10;stroke-dasharray:none;stroke-opacity:1"
             id="path3833" /></g><g
           id="g3835"
           transform="translate(183.4009,392.4395)"><path
             d="m 0,0 h 133.118 v 13.04 c 0,8.981 -7.28,16.262 -16.262,16.262 h -268.712 c -8.981,0 -16.262,-7.281 -16.262,-16.262 V 0 H -35"
             style="fill:none;stroke:#1641A6;stroke-width:15;stroke-linecap:round;stroke-linejoin:round;stroke-miterlimit:10;stroke-dasharray:none;stroke-opacity:1"
             id="path3837" /></g><g
           id="g3839"
           transform="translate(420.0385,221.2314)"><path
             d="M 0,0 5.987,-4.809 C 9.785,-7.858 14.51,-9.521 19.381,-9.521 H 67.803 C 66.898,5.104 63.826,19.532 58.662,33.282 L 37.439,105.633 H -66.001 V 39.934 c 0,-5.698 4.618,-10.316 10.314,-10.316 h 11.28 c 4.871,0 9.596,-1.662 13.394,-4.712 l 3.718,-2.986"
             style="fill:none;stroke:#1641A6;stroke-width:15;stroke-linecap:round;stroke-linejoin:round;stroke-miterlimit:10;stroke-dasharray:none;stroke-opacity:1"
             id="path3841" /></g></g></g></g></svg>
