<svg clip-rule="evenodd" fill-rule="evenodd" height="300" image-rendering="optimizeQuality" shape-rendering="geometricPrecision" text-rendering="geometricPrecision" viewBox="0 0 1707 1707" width="300" xmlns="http://www.w3.org/2000/svg" version="1.1" xmlns:xlink="http://www.w3.org/1999/xlink" xmlns:svgjs="http://svgjs.dev/svgjs"><g width="100%" height="100%" transform="matrix(1,0,0,1,0,0)"><g id="Layer_x0020_1"><path d="m112 615h-63v31h86c-8-9-16-20-23-31zm1189 66c-297 81-339 171-374 247-31 68-58 127-210 163 0 9-1 17-2 24-1 12-4 22-7 29l-1 3c-17 31-45 27-72 22-9-1-16-7-16-5-4 13 49 32 62 36h490c-5-54-14-174 13-234 49-108 149-147 233-180 30-12 59-23 80-35-21-1-39-10-52-23-14-14-23-33-23-55 0-21 9-40 23-54 12-12 28-20 45-23-14-20-32-44-54-71-19-23-43-39-69-49l-1-1c-39-15-80-19-116-17-29 1-53 7-63 13 5 8 44 34 83 59 48 31 96 62 100 94 5 28-14 48-69 57zm-619 368c150-31 174-82 201-142 37-80 81-174 352-258-60-33-171-85-282-95-148-13-241 106-251 120-5 6-12 11-21 11h-157c-6 0-12-2-16-6l-147-126h-222c31 94 169 136 295 174 69 21 136 41 184 69l2 1c23 14 42 36 56 63 15 29 26 64 32 100 3 14-6 26-20 28l-343 56 6 36 190-18h1 1zm887-410c2 5 4 9 5 14 14 42 10 73-7 98 22 9 42 20 61 34 28 19 53 43 74 71 8 11 6 26-5 34s-26 6-34-5c-18-23-39-44-63-60-22-16-46-28-72-37-17 12-38 21-61 31 54 6 103 31 139 68 44 44 71 104 71 170 0 67-27 127-71 170-43 44-103 71-170 71-66 0-127-27-170-71-21-20-38-45-50-72 3 38 7 66 7 66 2 13-7 25-20 28-1 0-3 0-4 0h-522c-3 0-7-1-10-2-20-9-111-48-94-98 12-37 40-33 70-28 10 2 20 4 21 3v-1c1-2 2-7 3-15l1-9-103 10c-11 51-39 96-76 129-43 38-99 60-159 60-66 0-126-27-170-71-44-43-71-103-71-170 0-66 27-126 71-170 44-43 104-70 170-70 50 0 98 15 138 43 36 25 65 60 83 101l104-17c-5-22-13-43-22-62-10-19-23-34-38-43l-1-1c-44-25-108-44-174-64-36-12-74-23-110-36-31 2-63 9-92 20-30 11-58 27-83 47-11 8-26 6-35-4-8-11-6-26 5-34 29-23 61-41 96-54 9-4 18-7 27-9-6-3-12-6-18-10h-185-1c-13 0-24-11-24-24v-79c0-14 11-25 24-25h68c-3-11-6-23-7-35-1-14 8-26 22-27h2 261c7 0 13 3 17 7l146 125h136c29-34 132-144 289-130 155 14 308 103 344 125 14-1 21 2 20 0-1-10-40-35-79-60-58-39-118-78-102-120 2-6 6-11 12-15v-1c15-12 51-23 95-26 41-2 90 3 136 21l1 1c33 13 64 33 88 63 49 59 80 107 96 145zm-49 14c-5-5-13-8-20-8-8 0-16 3-21 8s-8 12-8 20 3 15 8 20c5 6 13 9 21 9 7 0 15-3 20-9 5-5 8-12 8-20s-3-15-8-20zm-1006 460-181 17c-12 1-24-8-26-20l-13-82c-3-13 6-25 20-28l187-30c-15-29-36-53-61-70-31-22-70-35-110-35-53 0-101 22-136 57-34 34-56 82-56 135s22 101 56 136c35 35 83 56 136 56 48 0 93-18 127-47 26-23 46-54 57-89zm1058-191c-35-35-83-57-136-57s-101 22-136 57c-34 34-56 82-56 135s22 101 56 136c35 35 83 56 136 56s101-21 136-56 56-83 56-136-21-101-56-135z" fill-rule="nonzero" fill="#1641a6" fill-opacity="1" data-original-color="#000000ff" stroke="none" stroke-opacity="1"/></g></g></svg>