<svg id="Layer_1" height="512" viewBox="0 0 512 512" width="512" xmlns="http://www.w3.org/2000/svg" data-name="Layer 1"><path d="m382.611 316.806c-15.4-16.976-39.207-19.984-57.908-7.309l-32.412 21.963c-13.061 8.844-44.283-13.915-69.6-50.745-20.088-29.222-31.468-60.072-28.317-76.766 1.079-5.721 3.543-7.968 5.3-9.161l32.412-21.964c18.643-12.633 24.682-35.851 14.686-56.461l-47.424-97.769c-4.114-8.483-11.748-14.594-21.506-17.207-12.32-3.3-27-.592-38.31 7.073l-64.817 43.922c-20.437 13.85-40.315 46.118-18.929 121.166 13.984 49.084 43.119 107.744 82.037 165.175 38.8 57.252 82.263 105.787 122.393 136.664 36.156 27.818 63.962 36.979 84.9 36.979a60.043 60.043 0 0 0 34.389-10.207l64.816-43.923c11.452-7.76 19.207-20.052 20.746-32.883 1.2-10.035-1.626-19.411-7.967-26.4zm58.626 105.694c-.7 5.844-4.775 12.073-10.378 15.87l-64.817 43.923a36.464 36.464 0 0 1 -20.916 6.022c-24.387 0-52.971-18.636-70.273-31.948-38.154-29.356-79.762-75.917-117.16-131.105-79.454-117.253-109.337-226.022-69.512-253.01l64.819-43.923c5.622-3.807 12.933-5.282 18.633-3.757 3 .806 5.065 2.319 6.122 4.5l47.425 97.768c3.938 8.12 3.439 19.344-6.555 26.116l-32.411 21.964c-8.092 5.483-13.426 13.984-15.425 24.581-6.6 35 22.918 81.421 32.124 94.813 14.683 21.359 31.639 39.186 47.743 50.2 26.814 18.331 44.765 13.829 55.1 6.821l32.412-21.962c10.025-6.792 20.614-3.105 26.662 3.564l74.492 82.144c1.643 1.806 2.288 4.302 1.915 7.419z"/></svg>