<svg viewBox="0 0 64 64" xmlns="http://www.w3.org/2000/svg" fill="#1641A6"><g id="Layer_2" data-name="Layer 2"><path d="m20.84 37.41a1 1 0 0 0 1-1v-11.92a1 1 0 0 0 -1-1h-11.93a1 1 0 0 0 -1 1v11.92a1 1 0 0 0 1 1zm-10.93-11.92h9.93v9.92h-9.93z"/><path d="m60.73 38.43h-3.34a1 1 0 0 0 -1 1v1.18h-8.51v-28.24a1 1 0 0 0 -1-1h-43.61a1 1 0 0 0 -1 1v33.47a1 1 0 0 0 1 1h5.58a6.78 6.78 0 0 0 13.42 0h19.89v4.58a1 1 0 0 0 1 1h3.72a1 1 0 0 0 1-1v-5.48h12.85a1 1 0 0 0 1-1v-5.51a1 1 0 0 0 -1-1zm-56.46-25.06h41.61v2.74h-41.61zm0 4.74h41.61v26.73h-3.65v-19.13a1 1 0 0 0 -1-1h-10.38a1 1 0 0 0 -1 1v19.13h-7.58a6.78 6.78 0 0 0 -13.42 0h-4.58zm11.29 32.52a4.79 4.79 0 0 1 -4.68-3.79 4.6 4.6 0 0 1 0-2 4.78 4.78 0 0 1 9.36 0 4.6 4.6 0 0 1 0 2 4.79 4.79 0 0 1 -4.68 3.79zm16.29-5.79v-18.13h8.38v18.13zm14 5.58h-1.69v-3.58h1.72zm13.85-6.48h-11.82v-1.33h9.51a1 1 0 0 0 1-1v-1.18h1.34z"/></g></svg>